<svg xmlns="http://www.w3.org/2000/svg" width="36" height="36" viewBox="0 0 36 36">
  <g id="Group_2" data-name="Group 2" transform="translate(-1815 -756)">
    <rect id="Rectangle_14" data-name="Rectangle 14" width="36" height="36" transform="translate(1815 756)" fill="none"/>
    <path id="expand_more_FILL0_wght400_GRAD0_opsz48" d="M29.2,36.088a2.142,2.142,0,0,1-.8-.146,2.223,2.223,0,0,1-.73-.511L13.223,20.987a2.008,2.008,0,0,1-.547-1.569,2.244,2.244,0,0,1,.62-1.569,1.83,1.83,0,0,1,1.569-.62,2.743,2.743,0,0,1,1.5.693L29.2,30.763l12.84-12.84a2.382,2.382,0,0,1,1.569-.657,1.726,1.726,0,0,1,1.569.657,1.608,1.608,0,0,1,.62,1.532A2.841,2.841,0,0,1,45.1,21.06L30.732,35.432a2.223,2.223,0,0,1-.73.511A2.142,2.142,0,0,1,29.2,36.088Z" transform="translate(1803.996 747.587)" fill="#647295"/>
  </g>
</svg>
