<svg xmlns="http://www.w3.org/2000/svg" width="34" height="34" viewBox="0 0 34 34">
  <g id="Group_5" data-name="Group 5" transform="translate(-1079 -1203)">
    <rect id="Rectangle_23" data-name="Rectangle 23" width="34" height="34" transform="translate(1079 1203)" fill="none"/>
    <path id="delete_FILL0_wght400_GRAD0_opsz48" d="M12.734,40a2.689,2.689,0,0,1-1.969-.85,2.728,2.728,0,0,1-.844-1.983V10.25H9.406a1.361,1.361,0,0,1-1.008-.4,1.493,1.493,0,0,1,0-2.031,1.361,1.361,0,0,1,1.008-.4h7.406a1.381,1.381,0,0,1,.4-1.015A1.361,1.361,0,0,1,18.219,6h9.563a1.361,1.361,0,0,1,1.008.4,1.381,1.381,0,0,1,.4,1.015h7.406a1.361,1.361,0,0,1,1.008.4,1.493,1.493,0,0,1,0,2.031,1.361,1.361,0,0,1-1.008.4h-.516V37.167a2.728,2.728,0,0,1-.844,1.983,2.689,2.689,0,0,1-1.969.85Zm0-29.75V37.167H33.266V10.25ZM17.7,31.689a1.381,1.381,0,0,0,.4,1.015,1.466,1.466,0,0,0,2.016,0,1.381,1.381,0,0,0,.4-1.015V15.681a1.381,1.381,0,0,0-.4-1.015,1.466,1.466,0,0,0-2.016,0,1.381,1.381,0,0,0-.4,1.015Zm7.781,0a1.381,1.381,0,0,0,.4,1.015,1.466,1.466,0,0,0,2.016,0,1.381,1.381,0,0,0,.4-1.015V15.681a1.381,1.381,0,0,0-.4-1.015,1.466,1.466,0,0,0-2.016,0,1.381,1.381,0,0,0-.4,1.015ZM12.734,10.25V37.167h0Z" transform="translate(1073 1197)" fill="#647295"/>
  </g>
</svg>
