<svg xmlns="http://www.w3.org/2000/svg" width="36" height="36" viewBox="0 0 36 36">
  <g id="Group_8" data-name="Group 8" transform="translate(36) rotate(90)">
    <rect id="Rectangle_14" data-name="Rectangle 14" width="36" height="36" transform="translate(0 0)" fill="none"/>
    <path id="expand_more_FILL0_wght400_GRAD0_opsz48" d="M16.526,0a2.142,2.142,0,0,0-.8.146,2.223,2.223,0,0,0-.73.511L.549,15.1A2.008,2.008,0,0,0,0,16.67a2.244,2.244,0,0,0,.62,1.569,1.83,1.83,0,0,0,1.569.62,2.743,2.743,0,0,0,1.5-.693l12.84-12.84,12.84,12.84a2.382,2.382,0,0,0,1.569.657,1.726,1.726,0,0,0,1.569-.657,1.608,1.608,0,0,0,.62-1.532,2.841,2.841,0,0,0-.693-1.605L18.059.657a2.223,2.223,0,0,0-.73-.511A2.142,2.142,0,0,0,16.526,0Z" transform="translate(1.67 8.325)" fill="#647295"/>
  </g>
</svg>
